<svg width="50" height="50" viewBox="0 0 50 50" fill="none" xmlns="http://www.w3.org/2000/svg">
<path d="M44.5273 34.75C43.4492 37.1445 42.9297 38.2148 41.5429 40.3281C39.6015 43.2812 36.8633 46.9688 33.4804 46.9922C30.4687 47.0195 29.6914 45.0273 25.6015 45.0625C21.5156 45.082 20.664 47.0312 17.6484 47C14.2617 46.9688 11.6719 43.6484 9.73045 40.6992C4.30076 32.4297 3.72654 22.7344 7.08201 17.5781C9.45701 13.9219 13.2109 11.7734 16.7383 11.7734C20.332 11.7734 22.5898 13.7461 25.5586 13.7461C28.4414 13.7461 30.1953 11.7695 34.3515 11.7695C37.4922 11.7695 40.8125 13.4805 43.1875 16.4336C35.4219 20.6914 36.6836 31.7812 44.5273 34.75ZM31.1953 8.46875C32.707 6.52734 33.8554 3.78906 33.4375 1C30.9726 1.16797 28.0898 2.74219 26.4062 4.78125C24.8789 6.64062 23.6133 9.39844 24.1054 12.0664C26.7969 12.1523 29.582 10.5469 31.1953 8.46875Z" fill="white"/>
</svg>
