<svg width="50" height="50" viewBox="0 0 50 50" fill="none" xmlns="http://www.w3.org/2000/svg">
<path d="M7.125 2L28.7812 23.5L34.7188 17.5625L8.46875 2.40625C8.03125 2.15234 7.5625 2.01172 7.125 2ZM5.3125 3C5.11719 3.34766 5 3.75781 5 4.21875V46C5 46.3359 5.07031 46.6367 5.1875 46.9062L27.3438 24.9062L5.3125 3ZM36.5312 18.5938L30.1875 24.9062L36.5312 31.1875L44.2812 26.75C45.3828 26.1133 45.5391 25.3047 45.5312 24.875C45.5195 24.1641 45.0703 23.5 44.3125 23.0938C43.6523 22.7383 38.75 19.8828 36.5312 18.5938ZM28.7812 26.3125L6.9375 47.9688C7.30078 47.9492 7.69531 47.8711 8.0625 47.6562C8.91797 47.1602 26.2188 37.1562 26.2188 37.1562L34.75 32.25L28.7812 26.3125Z" fill="white"/>
</svg>
