<svg width="51" height="49" viewBox="0 0 51 49" fill="none" xmlns="http://www.w3.org/2000/svg">
<path d="M38.7917 48.3333H12.2083V16.9167L29.125 0L32.1458 3.02083C32.4278 3.30278 32.6594 3.68542 32.8406 4.16875C33.0219 4.65208 33.1125 5.11528 33.1125 5.55833V6.40417L30.4542 16.9167H46.0417C47.3306 16.9167 48.4583 17.4 49.425 18.3667C50.3917 19.3333 50.875 20.4611 50.875 21.75V26.5833C50.875 26.8653 50.8347 27.1674 50.7542 27.4896C50.6736 27.8118 50.5931 28.1139 50.5125 28.3958L43.2625 45.4333C42.9 46.2389 42.2958 46.9236 41.45 47.4875C40.6042 48.0514 39.7181 48.3333 38.7917 48.3333ZM17.0417 43.5H38.7917L46.0417 26.5833V21.75H24.2917L27.5542 8.45833L17.0417 18.9708V43.5ZM12.2083 16.9167V21.75H4.95833V43.5H12.2083V48.3333H0.125V16.9167H12.2083Z" fill="white"/>
</svg>
