<svg width="177" height="220" viewBox="0 0 177 220" fill="none" xmlns="http://www.w3.org/2000/svg">
<path d="M7 32.107C7 14.3748 21.3748 0 39.107 0H134.893C152.625 0 167 14.3748 167 32.107V127.893C167 145.625 152.625 160 134.893 160H39.107C21.3748 160 7 145.625 7 127.893V32.107Z" fill="#31004F"/>
<path d="M74.3396 113.544C74.7878 113.544 74.7878 112.848 74.3396 112.848C73.8914 112.848 73.8914 113.544 74.3396 113.544Z" fill="white"/>
<path d="M107.985 116.549C108.433 116.549 108.433 115.853 107.985 115.853C107.537 115.853 107.537 116.549 107.985 116.549Z" fill="white"/>
<path d="M145.018 56.9287C146.029 56.9287 146.848 56.1095 146.848 55.0989C146.848 54.0883 146.029 53.2691 145.018 53.2691C144.007 53.2691 143.188 54.0883 143.188 55.0989C143.188 56.1095 144.007 56.9287 145.018 56.9287Z" fill="white"/>
<path d="M43.2975 117.55C43.7457 117.55 43.7457 116.853 43.2975 116.853C42.8493 116.853 42.8493 117.55 43.2975 117.55Z" fill="white"/>
<path d="M49.1051 107.537C49.5533 107.537 49.5533 106.84 49.1051 106.84C48.657 106.84 48.657 107.537 49.1051 107.537Z" fill="white"/>
<path d="M131.162 110.361C131.61 110.361 131.61 109.664 131.162 109.664C130.714 109.664 130.714 110.361 131.162 110.361Z" fill="white"/>
<path d="M123.805 97.7238C124.254 97.7238 124.254 97.0272 123.805 97.0272C123.357 97.0272 123.357 97.7238 123.805 97.7238Z" fill="white"/>
<path d="M123.004 60.8764C123.452 60.8764 123.452 60.1797 123.004 60.1797C122.556 60.1797 122.556 60.8764 123.004 60.8764Z" fill="white"/>
<path d="M131.215 45.6549C131.663 45.6549 131.663 44.9583 131.215 44.9583C130.767 44.9583 130.767 45.6549 131.215 45.6549Z" fill="white"/>
<path d="M76.1416 36.8447C76.5897 36.8447 76.5897 36.1481 76.1416 36.1481C75.6934 36.1481 75.6934 36.8447 76.1416 36.8447Z" fill="white"/>
<path d="M56.7171 42.6524C57.1652 42.6524 57.1652 41.9557 56.7171 41.9557C56.2689 41.9557 56.2689 42.6524 56.7171 42.6524Z" fill="white"/>
<path d="M52.11 60.4746C52.5581 60.4746 52.5581 59.778 52.11 59.778C51.6618 59.778 51.6618 60.4746 52.11 60.4746Z" fill="white"/>
<path d="M33.886 72.9026C35.3791 72.9026 35.3837 70.5804 33.886 70.5804C32.3882 70.5804 32.3882 72.9026 33.886 72.9026Z" fill="white"/>
<path d="M105.981 46.268C107.474 46.268 107.479 43.9459 105.981 43.9459C104.483 43.9459 104.483 46.268 105.981 46.268Z" fill="white"/>
<path d="M139.826 68.4976C141.319 68.4976 141.323 66.1754 139.826 66.1754C138.328 66.1754 138.328 68.4976 139.826 68.4976Z" fill="white"/>
<path d="M123.866 122.566C125.359 122.566 125.364 120.244 123.866 120.244C122.368 120.244 122.368 122.566 123.866 122.566Z" fill="white"/>
<path d="M71.3348 138.189C72.8279 138.189 72.8326 135.867 71.3348 135.867C69.837 135.867 69.837 138.189 71.3348 138.189Z" fill="white"/>
<path d="M32.084 96.7346C33.5771 96.7346 33.5818 94.4125 32.084 94.4125C30.5862 94.4125 30.5862 96.7346 32.084 96.7346Z" fill="white"/>
<path d="M72.3379 49.9397C73.831 49.9397 73.8357 47.6176 72.3379 47.6176C70.8402 47.6176 70.8402 49.9397 72.3379 49.9397Z" fill="white"/>
<path d="M42.8981 54.6123C44.3912 54.6123 44.3959 52.2902 42.8981 52.2902C41.4003 52.2902 41.4003 54.6123 42.8981 54.6123Z" fill="white"/>
<path d="M121.602 38.6584C123.095 38.6584 123.099 36.3363 121.602 36.3363C120.104 36.3363 120.104 38.6584 121.602 38.6584Z" fill="white"/>
<path d="M88.623 36.4779L97.2148 59.4669L119.574 49.2984L109.638 70.9614L132.395 80.2498L109.638 89.3061L119.574 111.201L97.2148 101.033L88.623 124.022L79.7989 101.033L57.6715 111.201L67.3756 89.3061L44.851 80.2498L67.3756 70.9614L57.6715 49.2984L79.7989 59.4669L88.623 36.4779Z" fill="url(#paint0_linear_19_17)"/>
<path d="M104.915 82.8087C106.36 73.9119 100.318 65.5289 91.4212 64.0848C82.5245 62.6407 74.1415 68.6822 72.6974 77.579C71.2532 86.4757 77.2947 94.8587 86.1915 96.3028C95.0883 97.747 103.471 91.7054 104.915 82.8087Z" fill="url(#paint1_linear_19_17)"/>
<path d="M88.8041 64.2202C97.6096 64.2202 104.776 71.3839 104.776 80.1917C104.776 88.9996 97.6119 96.1633 88.8041 96.1633C79.9963 96.1633 72.8325 88.9996 72.8325 80.1917C72.8325 71.3839 79.9963 64.2202 88.8041 64.2202ZM88.8041 63.5236C79.5992 63.5236 72.1359 70.9869 72.1359 80.1917C72.1359 89.3966 79.5992 96.8599 88.8041 96.8599C98.009 96.8599 105.472 89.3966 105.472 80.1917C105.472 70.9869 98.009 63.5236 88.8041 63.5236Z" fill="url(#paint2_linear_19_17)"/>
<path d="M19.4954 208.55H19.7204C20.4404 208.55 20.8004 208.22 20.8004 207.56C20.8004 207.32 20.7554 207.065 20.6654 206.795L16.6154 195.86H8.7404L4.8254 206.615C4.7354 206.855 4.6904 207.08 4.6904 207.29C4.6904 207.68 4.7954 207.995 5.0054 208.235C5.2154 208.445 5.4404 208.55 5.6804 208.55H5.9054V209H0.910396V208.55H1.1354C1.5254 208.55 1.9004 208.325 2.2604 207.875C2.6504 207.395 2.9654 206.84 3.2054 206.21L13.5104 178.76L23.5904 205.94C23.8004 206.54 24.0854 207.125 24.4454 207.695C24.8354 208.265 25.3304 208.55 25.9304 208.55H26.1554V209H19.4954V208.55ZM9.1904 194.33H16.1204L12.6554 184.925L9.1904 194.33ZM43.4734 203.87C43.4734 204.65 43.2784 205.37 42.8884 206.03C42.4984 206.69 41.9584 207.275 41.2684 207.785C40.6084 208.265 39.8284 208.655 38.9284 208.955C38.0284 209.225 37.0534 209.36 36.0034 209.36C34.7134 209.36 33.6634 209.195 32.8534 208.865C32.0434 208.505 31.3534 208.145 30.7834 207.785C30.3934 207.545 30.0334 207.35 29.7034 207.2C29.3734 207.02 29.0134 206.93 28.6234 206.93V203.51H29.0734C29.1634 203.93 29.4184 204.395 29.8384 204.905C30.2884 205.385 30.8134 205.835 31.4134 206.255C32.0434 206.675 32.7184 207.035 33.4384 207.335C34.1884 207.605 34.9384 207.74 35.6884 207.74C36.2284 207.74 36.7834 207.68 37.3534 207.56C37.9234 207.44 38.4334 207.245 38.8834 206.975C39.3634 206.705 39.7534 206.375 40.0534 205.985C40.3834 205.565 40.5484 205.07 40.5484 204.5C40.5484 203.93 40.3834 203.435 40.0534 203.015C39.7234 202.595 39.3034 202.235 38.7934 201.935C38.2834 201.605 37.6984 201.32 37.0384 201.08C36.3784 200.84 35.7184 200.615 35.0584 200.405C34.2784 200.165 33.4834 199.895 32.6734 199.595C31.8934 199.295 31.1884 198.95 30.5584 198.56C29.9284 198.14 29.4184 197.645 29.0284 197.075C28.6384 196.475 28.4434 195.77 28.4434 194.96C28.4434 194.27 28.5634 193.61 28.8034 192.98C29.0734 192.35 29.4934 191.81 30.0634 191.36C30.6634 190.88 31.4284 190.505 32.3584 190.235C33.2884 189.935 34.4134 189.785 35.7334 189.785C36.9034 189.785 37.8034 189.89 38.4334 190.1C39.0934 190.28 39.6334 190.475 40.0534 190.685C40.3234 190.835 40.5934 190.955 40.8634 191.045C41.1334 191.105 41.4334 191.135 41.7634 191.135V194.285H41.4034C40.8634 193.295 40.0384 192.545 38.9284 192.035C37.8184 191.525 36.6784 191.27 35.5084 191.27C34.7584 191.27 34.1134 191.375 33.5734 191.585C33.0334 191.765 32.5834 192.005 32.2234 192.305C31.8934 192.575 31.6384 192.89 31.4584 193.25C31.3084 193.61 31.2334 193.97 31.2334 194.33C31.2334 194.84 31.3684 195.275 31.6384 195.635C31.9384 195.995 32.3284 196.31 32.8084 196.58C33.3184 196.85 33.8734 197.105 34.4734 197.345C35.1034 197.585 35.7634 197.81 36.4534 198.02C37.2934 198.29 38.1334 198.59 38.9734 198.92C39.8134 199.22 40.5634 199.595 41.2234 200.045C41.8834 200.495 42.4234 201.035 42.8434 201.665C43.2634 202.265 43.4734 203 43.4734 203.87ZM51.7593 191.63V202.475C51.7593 203.255 51.7743 203.96 51.8043 204.59C51.8343 205.22 51.9093 205.745 52.0293 206.165C52.1493 206.585 52.3293 206.915 52.5693 207.155C52.8093 207.365 53.1393 207.47 53.5593 207.47C54.1893 207.47 54.7743 207.17 55.3143 206.57C55.8843 205.97 56.2443 205.25 56.3943 204.41H56.7993V207.695C56.5293 207.695 56.3043 207.785 56.1243 207.965C55.8843 208.175 55.5393 208.4 55.0893 208.64C54.6693 208.88 54.0243 209 53.1543 209C52.0743 209 51.2343 208.79 50.6343 208.37C50.0343 207.95 49.5993 207.395 49.3293 206.705C49.0593 206.015 48.8943 205.25 48.8343 204.41C48.8043 203.57 48.7893 202.715 48.7893 201.845V191.63H46.2693V190.1H48.7893V186.095C48.7893 185.585 48.7143 185.12 48.5643 184.7C48.4443 184.25 48.0093 184.01 47.2593 183.98V183.53L51.7593 182.09V190.1H56.7993V191.63H51.7593ZM71.1614 193.385C70.8014 192.785 70.4264 192.41 70.0364 192.26C69.6464 192.11 69.1964 192.035 68.6864 192.035C68.3564 192.035 67.9964 192.11 67.6064 192.26C67.2464 192.41 66.8864 192.605 66.5264 192.845C66.1664 193.085 65.8064 193.355 65.4464 193.655C65.1164 193.925 64.8314 194.18 64.5914 194.42V206.12C64.5914 206.36 64.6214 206.615 64.6814 206.885C64.7414 207.155 64.8314 207.425 64.9514 207.695C65.1014 207.935 65.2514 208.145 65.4014 208.325C65.5814 208.475 65.7914 208.55 66.0314 208.55V209H60.1814V208.55C60.3914 208.55 60.5864 208.475 60.7664 208.325C60.9464 208.145 61.0964 207.935 61.2164 207.695C61.3664 207.425 61.4714 207.155 61.5314 206.885C61.5914 206.615 61.6214 206.36 61.6214 206.12V193.565C61.6214 193.145 61.4864 192.725 61.2164 192.305C60.9464 191.885 60.5564 191.615 60.0464 191.495V191.135L64.5914 189.785V192.485C64.8614 192.155 65.1464 191.84 65.4464 191.54C65.7464 191.21 66.0764 190.925 66.4364 190.685C66.8264 190.415 67.2464 190.205 67.6964 190.055C68.1464 189.875 68.6714 189.785 69.2714 189.785C69.6914 189.785 70.2314 189.875 70.8914 190.055C71.5514 190.235 72.0914 190.43 72.5114 190.64L71.1614 193.385ZM84.7925 209.315C83.2925 209.315 81.9425 209.075 80.7425 208.595C79.5425 208.085 78.5075 207.41 77.6375 206.57C76.7975 205.7 76.1375 204.68 75.6575 203.51C75.2075 202.34 74.9825 201.065 74.9825 199.685C74.9825 198.215 75.2375 196.88 75.7475 195.68C76.2575 194.45 76.9625 193.4 77.8625 192.53C78.7625 191.66 79.8275 190.985 81.0575 190.505C82.2875 190.025 83.6225 189.785 85.0625 189.785C86.5025 189.785 87.8225 190.025 89.0225 190.505C90.2225 190.955 91.2575 191.6 92.1275 192.44C92.9975 193.28 93.6725 194.285 94.1525 195.455C94.6325 196.595 94.8725 197.855 94.8725 199.235C94.8725 200.525 94.6475 201.785 94.1975 203.015C93.7775 204.215 93.1325 205.28 92.2625 206.21C91.4225 207.14 90.3725 207.89 89.1125 208.46C87.8825 209.03 86.4425 209.315 84.7925 209.315ZM84.5225 191.27C83.4425 191.33 82.4825 191.6 81.6425 192.08C80.8325 192.53 80.1425 193.13 79.5725 193.88C79.0325 194.6 78.6125 195.425 78.3125 196.355C78.0425 197.285 77.9075 198.23 77.9075 199.19C77.9075 200.3 78.0725 201.38 78.4025 202.43C78.7625 203.45 79.2575 204.365 79.8875 205.175C80.5475 205.985 81.3275 206.63 82.2275 207.11C83.1275 207.59 84.1325 207.83 85.2425 207.83C86.3525 207.83 87.3275 207.59 88.1675 207.11C89.0375 206.63 89.7575 206.015 90.3275 205.265C90.8975 204.485 91.3175 203.615 91.5875 202.655C91.8875 201.695 92.0375 200.735 92.0375 199.775C92.0375 198.785 91.8875 197.795 91.5875 196.805C91.2875 195.785 90.8225 194.87 90.1925 194.06C89.5625 193.22 88.7675 192.545 87.8075 192.035C86.8775 191.525 85.7825 191.27 84.5225 191.27ZM126.93 179.75C126.33 179.75 125.82 180.005 125.4 180.515C124.98 181.025 124.695 181.58 124.545 182.18L116.355 209.18L109.335 187.04L102.315 209.225L94.0801 182.225C93.9301 181.655 93.6601 181.1 93.2701 180.56C92.9101 180.02 92.4901 179.75 92.0101 179.75V179.3H98.4001V179.75C98.0101 179.75 97.6801 179.915 97.4101 180.245C97.1701 180.545 97.0501 180.935 97.0501 181.415C97.0501 181.565 97.0801 181.76 97.1401 182L102.99 201.08L110.145 179.03L117.03 201.035L122.97 182C122.97 181.94 122.985 181.82 123.015 181.64C123.075 181.43 123.105 181.265 123.105 181.145C123.105 180.725 122.985 180.395 122.745 180.155C122.505 179.885 122.265 179.75 122.025 179.75V179.3H126.93V179.75ZM126.861 209V208.55C127.101 208.55 127.311 208.46 127.491 208.28C127.671 208.1 127.821 207.89 127.941 207.65C128.061 207.41 128.151 207.155 128.211 206.885C128.271 206.585 128.301 206.315 128.301 206.075V193.61C128.301 193.1 128.226 192.62 128.076 192.17C127.926 191.69 127.491 191.435 126.771 191.405V191L131.271 189.56V206.075C131.271 206.315 131.301 206.585 131.361 206.885C131.421 207.155 131.511 207.41 131.631 207.65C131.751 207.89 131.901 208.1 132.081 208.28C132.261 208.46 132.471 208.55 132.711 208.55V209H126.861ZM127.086 185.24C127.086 184.64 127.281 184.13 127.671 183.71C128.091 183.29 128.601 183.08 129.201 183.08C129.801 183.08 130.311 183.29 130.731 183.71C131.151 184.13 131.361 184.64 131.361 185.24C131.361 185.84 131.151 186.335 130.731 186.725C130.311 187.115 129.801 187.31 129.201 187.31C128.601 187.31 128.091 187.115 127.671 186.725C127.281 186.335 127.086 185.84 127.086 185.24ZM152.15 203.87C152.15 204.65 151.955 205.37 151.565 206.03C151.175 206.69 150.635 207.275 149.945 207.785C149.285 208.265 148.505 208.655 147.605 208.955C146.705 209.225 145.73 209.36 144.68 209.36C143.39 209.36 142.34 209.195 141.53 208.865C140.72 208.505 140.03 208.145 139.46 207.785C139.07 207.545 138.71 207.35 138.38 207.2C138.05 207.02 137.69 206.93 137.3 206.93V203.51H137.75C137.84 203.93 138.095 204.395 138.515 204.905C138.965 205.385 139.49 205.835 140.09 206.255C140.72 206.675 141.395 207.035 142.115 207.335C142.865 207.605 143.615 207.74 144.365 207.74C144.905 207.74 145.46 207.68 146.03 207.56C146.6 207.44 147.11 207.245 147.56 206.975C148.04 206.705 148.43 206.375 148.73 205.985C149.06 205.565 149.225 205.07 149.225 204.5C149.225 203.93 149.06 203.435 148.73 203.015C148.4 202.595 147.98 202.235 147.47 201.935C146.96 201.605 146.375 201.32 145.715 201.08C145.055 200.84 144.395 200.615 143.735 200.405C142.955 200.165 142.16 199.895 141.35 199.595C140.57 199.295 139.865 198.95 139.235 198.56C138.605 198.14 138.095 197.645 137.705 197.075C137.315 196.475 137.12 195.77 137.12 194.96C137.12 194.27 137.24 193.61 137.48 192.98C137.75 192.35 138.17 191.81 138.74 191.36C139.34 190.88 140.105 190.505 141.035 190.235C141.965 189.935 143.09 189.785 144.41 189.785C145.58 189.785 146.48 189.89 147.11 190.1C147.77 190.28 148.31 190.475 148.73 190.685C149 190.835 149.27 190.955 149.54 191.045C149.81 191.105 150.11 191.135 150.44 191.135V194.285H150.08C149.54 193.295 148.715 192.545 147.605 192.035C146.495 191.525 145.355 191.27 144.185 191.27C143.435 191.27 142.79 191.375 142.25 191.585C141.71 191.765 141.26 192.005 140.9 192.305C140.57 192.575 140.315 192.89 140.135 193.25C139.985 193.61 139.91 193.97 139.91 194.33C139.91 194.84 140.045 195.275 140.315 195.635C140.615 195.995 141.005 196.31 141.485 196.58C141.995 196.85 142.55 197.105 143.15 197.345C143.78 197.585 144.44 197.81 145.13 198.02C145.97 198.29 146.81 198.59 147.65 198.92C148.49 199.22 149.24 199.595 149.9 200.045C150.56 200.495 151.1 201.035 151.52 201.665C151.94 202.265 152.15 203 152.15 203.87ZM158.501 199.91C158.621 200.96 158.876 201.965 159.266 202.925C159.656 203.855 160.166 204.68 160.796 205.4C161.456 206.12 162.251 206.705 163.181 207.155C164.111 207.575 165.191 207.785 166.421 207.785C167.081 207.785 167.771 207.695 168.491 207.515C169.241 207.305 169.931 207.02 170.561 206.66C171.191 206.3 171.746 205.865 172.226 205.355C172.736 204.815 173.081 204.215 173.261 203.555H173.666V206.93C173.486 206.93 173.276 206.99 173.036 207.11C172.826 207.23 172.571 207.38 172.271 207.56C171.671 207.92 170.861 208.31 169.841 208.73C168.821 209.12 167.471 209.315 165.791 209.315C164.441 209.315 163.151 209.12 161.921 208.73C160.721 208.34 159.656 207.74 158.726 206.93C157.796 206.12 157.046 205.085 156.476 203.825C155.936 202.565 155.666 201.065 155.666 199.325C155.666 198.215 155.846 197.09 156.206 195.95C156.596 194.81 157.166 193.79 157.916 192.89C158.696 191.96 159.686 191.21 160.886 190.64C162.086 190.07 163.526 189.785 165.206 189.785C166.706 189.785 168.011 190.04 169.121 190.55C170.261 191.06 171.191 191.765 171.911 192.665C172.661 193.565 173.216 194.63 173.576 195.86C173.936 197.09 174.116 198.44 174.116 199.91H158.501ZM165.026 191.27C163.976 191.27 163.061 191.48 162.281 191.9C161.531 192.32 160.886 192.86 160.346 193.52C159.806 194.18 159.386 194.93 159.086 195.77C158.786 196.61 158.591 197.45 158.501 198.29H171.326C171.296 197.42 171.131 196.565 170.831 195.725C170.561 194.885 170.171 194.135 169.661 193.475C169.151 192.815 168.506 192.29 167.726 191.9C166.946 191.48 166.046 191.27 165.026 191.27Z" fill="black"/>
<defs>
<linearGradient id="paint0_linear_19_17" x1="87" y1="0" x2="87" y2="160" gradientUnits="userSpaceOnUse">
<stop stop-color="#EBD1FF"/>
<stop offset="1" stop-color="#8C00FB"/>
</linearGradient>
<linearGradient id="paint1_linear_19_17" x1="88.8041" y1="63.5236" x2="88.8041" y2="96.8599" gradientUnits="userSpaceOnUse">
<stop stop-color="#31004F"/>
<stop offset="1" stop-color="#8C00FB"/>
</linearGradient>
<linearGradient id="paint2_linear_19_17" x1="88.8041" y1="63.5236" x2="88.8041" y2="96.8599" gradientUnits="userSpaceOnUse">
<stop stop-color="#31004F"/>
<stop offset="1" stop-color="#8C00FB"/>
</linearGradient>
</defs>
</svg>
