<svg width="290" height="100" viewBox="0 0 290 100" fill="none" xmlns="http://www.w3.org/2000/svg">
<path d="M133.434 63.55H133.659C134.379 63.55 134.739 63.22 134.739 62.56C134.739 62.32 134.694 62.065 134.604 61.795L130.554 50.86H122.679L118.764 61.615C118.674 61.855 118.629 62.08 118.629 62.29C118.629 62.68 118.734 62.995 118.944 63.235C119.154 63.445 119.379 63.55 119.619 63.55H119.844V64H114.849V63.55H115.074C115.464 63.55 115.839 63.325 116.199 62.875C116.589 62.395 116.904 61.84 117.144 61.21L127.449 33.76L137.529 60.94C137.739 61.54 138.024 62.125 138.384 62.695C138.774 63.265 139.269 63.55 139.869 63.55H140.094V64H133.434V63.55ZM123.129 49.33H130.059L126.594 39.925L123.129 49.33ZM157.412 58.87C157.412 59.65 157.217 60.37 156.827 61.03C156.437 61.69 155.897 62.275 155.207 62.785C154.547 63.265 153.767 63.655 152.867 63.955C151.967 64.225 150.992 64.36 149.942 64.36C148.652 64.36 147.602 64.195 146.792 63.865C145.982 63.505 145.292 63.145 144.722 62.785C144.332 62.545 143.972 62.35 143.642 62.2C143.312 62.02 142.952 61.93 142.562 61.93V58.51H143.012C143.102 58.93 143.357 59.395 143.777 59.905C144.227 60.385 144.752 60.835 145.352 61.255C145.982 61.675 146.657 62.035 147.377 62.335C148.127 62.605 148.877 62.74 149.627 62.74C150.167 62.74 150.722 62.68 151.292 62.56C151.862 62.44 152.372 62.245 152.822 61.975C153.302 61.705 153.692 61.375 153.992 60.985C154.322 60.565 154.487 60.07 154.487 59.5C154.487 58.93 154.322 58.435 153.992 58.015C153.662 57.595 153.242 57.235 152.732 56.935C152.222 56.605 151.637 56.32 150.977 56.08C150.317 55.84 149.657 55.615 148.997 55.405C148.217 55.165 147.422 54.895 146.612 54.595C145.832 54.295 145.127 53.95 144.497 53.56C143.867 53.14 143.357 52.645 142.967 52.075C142.577 51.475 142.382 50.77 142.382 49.96C142.382 49.27 142.502 48.61 142.742 47.98C143.012 47.35 143.432 46.81 144.002 46.36C144.602 45.88 145.367 45.505 146.297 45.235C147.227 44.935 148.352 44.785 149.672 44.785C150.842 44.785 151.742 44.89 152.372 45.1C153.032 45.28 153.572 45.475 153.992 45.685C154.262 45.835 154.532 45.955 154.802 46.045C155.072 46.105 155.372 46.135 155.702 46.135V49.285H155.342C154.802 48.295 153.977 47.545 152.867 47.035C151.757 46.525 150.617 46.27 149.447 46.27C148.697 46.27 148.052 46.375 147.512 46.585C146.972 46.765 146.522 47.005 146.162 47.305C145.832 47.575 145.577 47.89 145.397 48.25C145.247 48.61 145.172 48.97 145.172 49.33C145.172 49.84 145.307 50.275 145.577 50.635C145.877 50.995 146.267 51.31 146.747 51.58C147.257 51.85 147.812 52.105 148.412 52.345C149.042 52.585 149.702 52.81 150.392 53.02C151.232 53.29 152.072 53.59 152.912 53.92C153.752 54.22 154.502 54.595 155.162 55.045C155.822 55.495 156.362 56.035 156.782 56.665C157.202 57.265 157.412 58 157.412 58.87ZM165.698 46.63V57.475C165.698 58.255 165.713 58.96 165.743 59.59C165.773 60.22 165.848 60.745 165.968 61.165C166.088 61.585 166.268 61.915 166.508 62.155C166.748 62.365 167.078 62.47 167.498 62.47C168.128 62.47 168.713 62.17 169.253 61.57C169.823 60.97 170.183 60.25 170.333 59.41H170.738V62.695C170.468 62.695 170.243 62.785 170.063 62.965C169.823 63.175 169.478 63.4 169.028 63.64C168.608 63.88 167.963 64 167.093 64C166.013 64 165.173 63.79 164.573 63.37C163.973 62.95 163.538 62.395 163.268 61.705C162.998 61.015 162.833 60.25 162.773 59.41C162.743 58.57 162.728 57.715 162.728 56.845V46.63H160.208V45.1H162.728V41.095C162.728 40.585 162.653 40.12 162.503 39.7C162.383 39.25 161.948 39.01 161.198 38.98V38.53L165.698 37.09V45.1H170.738V46.63H165.698ZM185.1 48.385C184.74 47.785 184.365 47.41 183.975 47.26C183.585 47.11 183.135 47.035 182.625 47.035C182.295 47.035 181.935 47.11 181.545 47.26C181.185 47.41 180.825 47.605 180.465 47.845C180.105 48.085 179.745 48.355 179.385 48.655C179.055 48.925 178.77 49.18 178.53 49.42V61.12C178.53 61.36 178.56 61.615 178.62 61.885C178.68 62.155 178.77 62.425 178.89 62.695C179.04 62.935 179.19 63.145 179.34 63.325C179.52 63.475 179.73 63.55 179.97 63.55V64H174.12V63.55C174.33 63.55 174.525 63.475 174.705 63.325C174.885 63.145 175.035 62.935 175.155 62.695C175.305 62.425 175.41 62.155 175.47 61.885C175.53 61.615 175.56 61.36 175.56 61.12V48.565C175.56 48.145 175.425 47.725 175.155 47.305C174.885 46.885 174.495 46.615 173.985 46.495V46.135L178.53 44.785V47.485C178.8 47.155 179.085 46.84 179.385 46.54C179.685 46.21 180.015 45.925 180.375 45.685C180.765 45.415 181.185 45.205 181.635 45.055C182.085 44.875 182.61 44.785 183.21 44.785C183.63 44.785 184.17 44.875 184.83 45.055C185.49 45.235 186.03 45.43 186.45 45.64L185.1 48.385ZM198.731 64.315C197.231 64.315 195.881 64.075 194.681 63.595C193.481 63.085 192.446 62.41 191.576 61.57C190.736 60.7 190.076 59.68 189.596 58.51C189.146 57.34 188.921 56.065 188.921 54.685C188.921 53.215 189.176 51.88 189.686 50.68C190.196 49.45 190.901 48.4 191.801 47.53C192.701 46.66 193.766 45.985 194.996 45.505C196.226 45.025 197.561 44.785 199.001 44.785C200.441 44.785 201.761 45.025 202.961 45.505C204.161 45.955 205.196 46.6 206.066 47.44C206.936 48.28 207.611 49.285 208.091 50.455C208.571 51.595 208.811 52.855 208.811 54.235C208.811 55.525 208.586 56.785 208.136 58.015C207.716 59.215 207.071 60.28 206.201 61.21C205.361 62.14 204.311 62.89 203.051 63.46C201.821 64.03 200.381 64.315 198.731 64.315ZM198.461 46.27C197.381 46.33 196.421 46.6 195.581 47.08C194.771 47.53 194.081 48.13 193.511 48.88C192.971 49.6 192.551 50.425 192.251 51.355C191.981 52.285 191.846 53.23 191.846 54.19C191.846 55.3 192.011 56.38 192.341 57.43C192.701 58.45 193.196 59.365 193.826 60.175C194.486 60.985 195.266 61.63 196.166 62.11C197.066 62.59 198.071 62.83 199.181 62.83C200.291 62.83 201.266 62.59 202.106 62.11C202.976 61.63 203.696 61.015 204.266 60.265C204.836 59.485 205.256 58.615 205.526 57.655C205.826 56.695 205.976 55.735 205.976 54.775C205.976 53.785 205.826 52.795 205.526 51.805C205.226 50.785 204.761 49.87 204.131 49.06C203.501 48.22 202.706 47.545 201.746 47.035C200.816 46.525 199.721 46.27 198.461 46.27ZM240.869 34.75C240.269 34.75 239.759 35.005 239.339 35.515C238.919 36.025 238.634 36.58 238.484 37.18L230.294 64.18L223.274 42.04L216.254 64.225L208.019 37.225C207.869 36.655 207.599 36.1 207.209 35.56C206.849 35.02 206.429 34.75 205.949 34.75V34.3H212.339V34.75C211.949 34.75 211.619 34.915 211.349 35.245C211.109 35.545 210.989 35.935 210.989 36.415C210.989 36.565 211.019 36.76 211.079 37L216.929 56.08L224.084 34.03L230.969 56.035L236.909 37C236.909 36.94 236.924 36.82 236.954 36.64C237.014 36.43 237.044 36.265 237.044 36.145C237.044 35.725 236.924 35.395 236.684 35.155C236.444 34.885 236.204 34.75 235.964 34.75V34.3H240.869V34.75ZM240.8 64V63.55C241.04 63.55 241.25 63.46 241.43 63.28C241.61 63.1 241.76 62.89 241.88 62.65C242 62.41 242.09 62.155 242.15 61.885C242.21 61.585 242.24 61.315 242.24 61.075V48.61C242.24 48.1 242.165 47.62 242.015 47.17C241.865 46.69 241.43 46.435 240.71 46.405V46L245.21 44.56V61.075C245.21 61.315 245.24 61.585 245.3 61.885C245.36 62.155 245.45 62.41 245.57 62.65C245.69 62.89 245.84 63.1 246.02 63.28C246.2 63.46 246.41 63.55 246.65 63.55V64H240.8ZM241.025 40.24C241.025 39.64 241.22 39.13 241.61 38.71C242.03 38.29 242.54 38.08 243.14 38.08C243.74 38.08 244.25 38.29 244.67 38.71C245.09 39.13 245.3 39.64 245.3 40.24C245.3 40.84 245.09 41.335 244.67 41.725C244.25 42.115 243.74 42.31 243.14 42.31C242.54 42.31 242.03 42.115 241.61 41.725C241.22 41.335 241.025 40.84 241.025 40.24ZM266.089 58.87C266.089 59.65 265.894 60.37 265.504 61.03C265.114 61.69 264.574 62.275 263.884 62.785C263.224 63.265 262.444 63.655 261.544 63.955C260.644 64.225 259.669 64.36 258.619 64.36C257.329 64.36 256.279 64.195 255.469 63.865C254.659 63.505 253.969 63.145 253.399 62.785C253.009 62.545 252.649 62.35 252.319 62.2C251.989 62.02 251.629 61.93 251.239 61.93V58.51H251.689C251.779 58.93 252.034 59.395 252.454 59.905C252.904 60.385 253.429 60.835 254.029 61.255C254.659 61.675 255.334 62.035 256.054 62.335C256.804 62.605 257.554 62.74 258.304 62.74C258.844 62.74 259.399 62.68 259.969 62.56C260.539 62.44 261.049 62.245 261.499 61.975C261.979 61.705 262.369 61.375 262.669 60.985C262.999 60.565 263.164 60.07 263.164 59.5C263.164 58.93 262.999 58.435 262.669 58.015C262.339 57.595 261.919 57.235 261.409 56.935C260.899 56.605 260.314 56.32 259.654 56.08C258.994 55.84 258.334 55.615 257.674 55.405C256.894 55.165 256.099 54.895 255.289 54.595C254.509 54.295 253.804 53.95 253.174 53.56C252.544 53.14 252.034 52.645 251.644 52.075C251.254 51.475 251.059 50.77 251.059 49.96C251.059 49.27 251.179 48.61 251.419 47.98C251.689 47.35 252.109 46.81 252.679 46.36C253.279 45.88 254.044 45.505 254.974 45.235C255.904 44.935 257.029 44.785 258.349 44.785C259.519 44.785 260.419 44.89 261.049 45.1C261.709 45.28 262.249 45.475 262.669 45.685C262.939 45.835 263.209 45.955 263.479 46.045C263.749 46.105 264.049 46.135 264.379 46.135V49.285H264.019C263.479 48.295 262.654 47.545 261.544 47.035C260.434 46.525 259.294 46.27 258.124 46.27C257.374 46.27 256.729 46.375 256.189 46.585C255.649 46.765 255.199 47.005 254.839 47.305C254.509 47.575 254.254 47.89 254.074 48.25C253.924 48.61 253.849 48.97 253.849 49.33C253.849 49.84 253.984 50.275 254.254 50.635C254.554 50.995 254.944 51.31 255.424 51.58C255.934 51.85 256.489 52.105 257.089 52.345C257.719 52.585 258.379 52.81 259.069 53.02C259.909 53.29 260.749 53.59 261.589 53.92C262.429 54.22 263.179 54.595 263.839 55.045C264.499 55.495 265.039 56.035 265.459 56.665C265.879 57.265 266.089 58 266.089 58.87ZM272.44 54.91C272.56 55.96 272.815 56.965 273.205 57.925C273.595 58.855 274.105 59.68 274.735 60.4C275.395 61.12 276.19 61.705 277.12 62.155C278.05 62.575 279.13 62.785 280.36 62.785C281.02 62.785 281.71 62.695 282.43 62.515C283.18 62.305 283.87 62.02 284.5 61.66C285.13 61.3 285.685 60.865 286.165 60.355C286.675 59.815 287.02 59.215 287.2 58.555H287.605V61.93C287.425 61.93 287.215 61.99 286.975 62.11C286.765 62.23 286.51 62.38 286.21 62.56C285.61 62.92 284.8 63.31 283.78 63.73C282.76 64.12 281.41 64.315 279.73 64.315C278.38 64.315 277.09 64.12 275.86 63.73C274.66 63.34 273.595 62.74 272.665 61.93C271.735 61.12 270.985 60.085 270.415 58.825C269.875 57.565 269.605 56.065 269.605 54.325C269.605 53.215 269.785 52.09 270.145 50.95C270.535 49.81 271.105 48.79 271.855 47.89C272.635 46.96 273.625 46.21 274.825 45.64C276.025 45.07 277.465 44.785 279.145 44.785C280.645 44.785 281.95 45.04 283.06 45.55C284.2 46.06 285.13 46.765 285.85 47.665C286.6 48.565 287.155 49.63 287.515 50.86C287.875 52.09 288.055 53.44 288.055 54.91H272.44ZM278.965 46.27C277.915 46.27 277 46.48 276.22 46.9C275.47 47.32 274.825 47.86 274.285 48.52C273.745 49.18 273.325 49.93 273.025 50.77C272.725 51.61 272.53 52.45 272.44 53.29H285.265C285.235 52.42 285.07 51.565 284.77 50.725C284.5 49.885 284.11 49.135 283.6 48.475C283.09 47.815 282.445 47.29 281.665 46.9C280.885 46.48 279.985 46.27 278.965 46.27Z" fill="white"/>
<path d="M41.8968 70.6441C42.1756 70.6441 42.1756 70.2107 41.8968 70.2107C41.6179 70.2107 41.6179 70.6441 41.8968 70.6441Z" fill="white"/>
<path d="M62.8298 72.5136C63.1087 72.5136 63.1087 72.0802 62.8298 72.0802C62.551 72.0802 62.551 72.5136 62.8298 72.5136Z" fill="white"/>
<path d="M85.8708 35.4194C86.4996 35.4194 87.0093 34.9097 87.0093 34.281C87.0093 33.6522 86.4996 33.1425 85.8708 33.1425C85.2421 33.1425 84.7324 33.6522 84.7324 34.281C84.7324 34.9097 85.2421 35.4194 85.8708 35.4194Z" fill="white"/>
<path d="M22.5833 73.1362C22.8621 73.1362 22.8621 72.7028 22.5833 72.7028C22.3044 72.7028 22.3044 73.1362 22.5833 73.1362Z" fill="white"/>
<path d="M26.1966 66.9065C26.4754 66.9065 26.4754 66.4731 26.1966 66.4731C25.9178 66.4731 25.9178 66.9065 26.1966 66.9065Z" fill="white"/>
<path d="M77.2499 68.6633C77.5288 68.6633 77.5288 68.2299 77.2499 68.2299C76.9711 68.2299 76.9711 68.6633 77.2499 68.6633Z" fill="white"/>
<path d="M72.673 60.801C72.9518 60.801 72.9518 60.3675 72.673 60.3675C72.3941 60.3675 72.3941 60.801 72.673 60.801Z" fill="white"/>
<path d="M72.1745 37.8755C72.4534 37.8755 72.4534 37.4421 72.1745 37.4421C71.8957 37.4421 71.8957 37.8755 72.1745 37.8755Z" fill="white"/>
<path d="M77.2832 28.4052C77.562 28.4052 77.562 27.9717 77.2832 27.9717C77.0043 27.9717 77.0043 28.4052 77.2832 28.4052Z" fill="white"/>
<path d="M43.0179 22.9237C43.2967 22.9237 43.2967 22.4903 43.0179 22.4903C42.7391 22.4903 42.7391 22.9237 43.0179 22.9237Z" fill="white"/>
<path d="M30.9325 26.5371C31.2114 26.5371 31.2114 26.1036 30.9325 26.1036C30.6537 26.1036 30.6537 26.5371 30.9325 26.5371Z" fill="white"/>
<path d="M28.0661 37.6256C28.345 37.6256 28.345 37.1922 28.0661 37.1922C27.7873 37.1922 27.7873 37.6256 28.0661 37.6256Z" fill="white"/>
<path d="M16.7277 45.3579C17.6566 45.3579 17.6595 43.9131 16.7277 43.9131C15.7958 43.9131 15.7958 45.3579 16.7277 45.3579Z" fill="white"/>
<path d="M61.583 28.7866C62.512 28.7866 62.5149 27.3418 61.583 27.3418C60.6511 27.3418 60.6511 28.7866 61.583 28.7866Z" fill="white"/>
<path d="M82.6403 42.6172C83.5693 42.6172 83.5722 41.1725 82.6403 41.1725C81.7085 41.1725 81.7085 42.6172 82.6403 42.6172Z" fill="white"/>
<path d="M72.7105 76.2569C73.6395 76.2569 73.6424 74.8122 72.7105 74.8122C71.7787 74.8122 71.7787 76.2569 72.7105 76.2569Z" fill="white"/>
<path d="M40.0273 78.5C40.9562 78.5 40.9591 77.0227 40.0273 77.0227C39.0954 77.0227 39.0954 78.5 40.0273 78.5Z" fill="white"/>
<path d="M15.6065 60.1855C16.5355 60.1855 16.5384 58.7407 15.6065 58.7407C14.6747 58.7407 14.6747 60.1855 15.6065 60.1855Z" fill="white"/>
<path d="M40.6514 31.0711C41.5804 31.0711 41.5833 29.6263 40.6514 29.6263C39.7195 29.6263 39.7195 31.0711 40.6514 31.0711Z" fill="white"/>
<path d="M22.3348 33.9782C23.2637 33.9782 23.2666 32.5335 22.3348 32.5335C21.4029 32.5335 21.4029 33.9782 22.3348 33.9782Z" fill="white"/>
<path d="M71.3019 24.0521C72.2309 24.0521 72.2338 22.6074 71.3019 22.6074C70.37 22.6074 70.37 24.0521 71.3019 24.0521Z" fill="white"/>
<path d="M50.7835 22.6955L56.1291 36.9986L70.0406 30.672L63.8585 44.1501L78.0171 49.9291L63.8585 55.5637L70.0406 69.1862L56.1291 62.8597L50.7835 77.1628L45.2934 62.8597L31.5264 69.1862L37.5639 55.5637L23.5498 49.9291L37.5639 44.1501L31.5264 30.672L45.2934 36.9986L50.7835 22.6955Z" fill="url(#paint0_linear_2_26)"/>
<path d="M60.9201 51.5212C61.8186 45.9859 58.0598 40.7702 52.5245 39.8717C46.9892 38.9732 41.7735 42.7321 40.875 48.2674C39.9765 53.8027 43.7354 59.0183 49.2707 59.9169C54.806 60.8154 60.0216 57.0565 60.9201 51.5212Z" fill="url(#paint1_linear_2_26)"/>
<path d="M50.8961 39.956C56.3747 39.956 60.8332 44.413 60.8332 49.893C60.8332 55.373 56.3761 59.83 50.8961 59.83C45.4162 59.83 40.9591 55.373 40.9591 49.893C40.9591 44.413 45.4162 39.956 50.8961 39.956ZM50.8961 39.5225C45.1691 39.5225 40.5257 44.166 40.5257 49.893C40.5257 55.62 45.1691 60.2635 50.8961 60.2635C56.6232 60.2635 61.2666 55.62 61.2666 49.893C61.2666 44.166 56.6232 39.5225 50.8961 39.5225Z" fill="url(#paint2_linear_2_26)"/>
<defs>
<linearGradient id="paint0_linear_2_26" x1="49.7737" y1="0" x2="49.7737" y2="99.5474" gradientUnits="userSpaceOnUse">
<stop stop-color="#EBD1FF"/>
<stop offset="1" stop-color="#8C00FB"/>
</linearGradient>
<linearGradient id="paint1_linear_2_26" x1="50.8961" y1="39.5225" x2="50.8961" y2="60.2635" gradientUnits="userSpaceOnUse">
<stop stop-color="#31004F"/>
<stop offset="1" stop-color="#8C00FB"/>
</linearGradient>
<linearGradient id="paint2_linear_2_26" x1="50.8961" y1="39.5225" x2="50.8961" y2="60.2635" gradientUnits="userSpaceOnUse">
<stop stop-color="#31004F"/>
<stop offset="1" stop-color="#8C00FB"/>
</linearGradient>
</defs>
</svg>
