<svg width="313" height="228" viewBox="0 0 313 228" fill="none" xmlns="http://www.w3.org/2000/svg">
<path d="M0.666667 6C0.666667 8.94552 3.05448 11.3333 6 11.3333C8.94552 11.3333 11.3333 8.94552 11.3333 6C11.3333 3.05448 8.94552 0.666667 6 0.666667C3.05448 0.666667 0.666667 3.05448 0.666667 6ZM91.8797 28.0169C91.8797 30.9625 94.2676 33.3503 97.2131 33.3503C100.159 33.3503 102.546 30.9625 102.546 28.0169C102.546 25.0714 100.159 22.6836 97.2131 22.6836C94.2676 22.6836 91.8797 25.0714 91.8797 28.0169ZM5.76536 6.97208L8.29906 7.58366L8.76834 5.6395L6.23464 5.02792L5.76536 6.97208ZM13.3664 8.80683L18.4338 10.03L18.9031 8.08583L13.8357 6.86266L13.3664 8.80683ZM23.5012 11.2532L28.5686 12.4763L29.0379 10.5322L23.9705 9.30899L23.5012 11.2532ZM33.636 13.6995L38.7034 14.9226L39.1727 12.9785L34.1053 11.7553L33.636 13.6995ZM43.7708 16.1458L48.8382 17.369L49.3075 15.4248L44.2401 14.2016L43.7708 16.1458ZM53.9056 18.5921L58.973 19.8153L59.4423 17.8711L54.3749 16.648L53.9056 18.5921ZM64.0404 21.0385L69.1078 22.2616L69.5771 20.3175L64.5097 19.0943L64.0404 21.0385ZM74.1752 23.4848L79.2426 24.708L79.7119 22.7638L74.6445 21.5406L74.1752 23.4848ZM84.31 25.9311L89.3774 27.1543L89.8466 25.2101L84.7793 23.987L84.31 25.9311ZM94.4448 28.3775L96.9784 28.989L97.4477 27.0449L94.914 26.4333L94.4448 28.3775Z" fill="white"/>
<path d="M91.3555 28.5411C91.3555 31.4867 93.7433 33.8745 96.6888 33.8745C99.6344 33.8745 102.022 31.4867 102.022 28.5411C102.022 25.5956 99.6344 23.2078 96.6888 23.2078C93.7433 23.2078 91.3555 25.5956 91.3555 28.5411ZM130.671 75.7203C130.671 78.6658 133.059 81.0536 136.005 81.0536C138.95 81.0536 141.338 78.6658 141.338 75.7203C141.338 72.7748 138.95 70.387 136.005 70.387C133.059 70.387 130.671 72.7748 130.671 75.7203ZM95.9206 29.1813L97.5588 31.1471L99.0952 29.8668L97.4571 27.901L95.9206 29.1813ZM100.835 35.0787L104.111 39.0103L105.648 37.7299L102.372 33.7983L100.835 35.0787ZM107.388 42.9419L110.664 46.8735L112.201 45.5931L108.924 41.6615L107.388 42.9419ZM113.94 50.8051L117.217 54.7367L118.753 53.4563L115.477 49.5247L113.94 50.8051ZM120.493 58.6683L123.769 62.5999L125.306 61.3195L122.03 57.3879L120.493 58.6683ZM127.046 66.5315L130.322 70.4631L131.859 69.1827L128.582 65.2511L127.046 66.5315ZM133.598 74.3947L135.237 76.3605L136.773 75.0801L135.135 73.1143L133.598 74.3947Z" fill="white"/>
<path d="M131.72 75.7203C131.72 78.6659 134.108 81.0537 137.053 81.0537C139.999 81.0537 142.387 78.6659 142.387 75.7203C142.387 72.7748 139.999 70.387 137.053 70.387C134.108 70.387 131.72 72.7748 131.72 75.7203ZM179.948 125.521C179.948 128.466 182.335 130.854 185.281 130.854C188.226 130.854 190.614 128.466 190.614 125.521C190.614 122.575 188.226 120.187 185.281 120.187C182.335 120.187 179.948 122.575 179.948 125.521ZM136.335 76.416L138.057 78.1946L139.494 76.8032L137.772 75.0247L136.335 76.416ZM141.502 81.7517L144.947 85.3089L146.384 83.9176L142.939 80.3604L141.502 81.7517ZM148.392 88.8661L151.837 92.4232L153.273 91.0319L149.829 87.4747L148.392 88.8661ZM155.281 95.9804L158.726 99.5375L160.163 98.1462L156.718 94.589L155.281 95.9804ZM162.171 103.095L165.616 106.652L167.053 105.261L163.608 101.703L162.171 103.095ZM169.061 110.209L172.506 113.766L173.942 112.375L170.498 108.818L169.061 110.209ZM175.95 117.323L179.395 120.881L180.832 119.489L177.387 115.932L175.95 117.323ZM182.84 124.438L184.563 126.216L185.999 124.825L184.277 123.046L182.84 124.438Z" fill="white"/>
<path d="M171.56 184.757C171.56 187.702 173.948 190.09 176.893 190.09C179.839 190.09 182.227 187.702 182.227 184.757C182.227 181.811 179.839 179.423 176.893 179.423C173.948 179.423 171.56 181.811 171.56 184.757ZM177.884 184.897L178.233 182.429L176.253 182.148L175.903 184.617L177.884 184.897ZM178.932 177.492L179.631 172.556L177.651 172.276L176.952 177.212L178.932 177.492ZM180.33 167.62L181.029 162.683L179.049 162.403L178.35 167.339L180.33 167.62ZM181.728 157.747L182.427 152.811L180.446 152.53L179.748 157.467L181.728 157.747ZM183.126 147.874L183.825 142.938L181.844 142.658L181.145 147.594L183.126 147.874ZM184.524 138.002L185.223 133.065L183.242 132.785L182.543 137.721L184.524 138.002ZM185.921 128.129L186.271 125.661L184.291 125.38L183.941 127.849L185.921 128.129Z" fill="white"/>
<path d="M262.773 221.976C262.773 224.921 265.161 227.309 268.107 227.309C271.052 227.309 273.44 224.921 273.44 221.976C273.44 219.03 271.052 216.642 268.107 216.642C265.161 216.642 262.773 219.03 262.773 221.976ZM176.52 186.209L178.801 187.126L179.547 185.271L177.267 184.353L176.52 186.209ZM183.361 188.961L187.922 190.795L188.668 188.94L184.108 187.105L183.361 188.961ZM192.482 192.63L197.043 194.465L197.79 192.609L193.229 190.775L192.482 192.63ZM201.604 196.3L206.164 198.134L206.911 196.279L202.35 194.444L201.604 196.3ZM210.725 199.969L215.286 201.804L216.032 199.948L211.472 198.114L210.725 199.969ZM219.846 203.639L224.407 205.473L225.154 203.618L220.593 201.783L219.846 203.639ZM228.968 207.308L233.528 209.143L234.275 207.287L229.714 205.453L228.968 207.308ZM238.089 210.978L242.65 212.812L243.396 210.957L238.835 209.122L238.089 210.978ZM247.21 214.647L251.771 216.482L252.517 214.626L247.957 212.792L247.21 214.647ZM256.332 218.317L260.892 220.151L261.639 218.296L257.078 216.461L256.332 218.317ZM265.453 221.986L267.733 222.904L268.48 221.048L266.199 220.131L265.453 221.986Z" fill="white"/>
<path d="M302.089 166.933C302.089 169.879 304.477 172.267 307.423 172.267C310.368 172.267 312.756 169.879 312.756 166.933C312.756 163.988 310.368 161.6 307.423 161.6C304.477 161.6 302.089 163.988 302.089 166.933ZM268.923 223.078L270.327 221.093L268.694 219.938L267.29 221.922L268.923 223.078ZM273.135 217.124L275.944 213.155L274.311 212L271.503 215.969L273.135 217.124ZM278.752 209.186L281.56 205.217L279.928 204.062L277.119 208.031L278.752 209.186ZM284.368 201.248L287.177 197.279L285.544 196.124L282.736 200.093L284.368 201.248ZM289.985 193.31L292.793 189.341L291.161 188.185L288.352 192.155L289.985 193.31ZM295.602 185.372L298.41 181.403L296.777 180.247L293.969 184.216L295.602 185.372ZM301.218 177.434L304.026 173.465L302.394 172.309L299.586 176.278L301.218 177.434ZM306.835 169.495L308.239 167.511L306.606 166.356L305.202 168.34L306.835 169.495Z" fill="white"/>
<path d="M307.423 166.933L185.281 125.521" stroke="white" stroke-width="2" stroke-dasharray="5 5"/>
</svg>
