<svg width="47" height="46" viewBox="0 0 47 46" fill="none" xmlns="http://www.w3.org/2000/svg">
<path d="M31.0625 33.6875L34.2709 30.4792L25.7917 22V11.4583H21.2084V23.8333L31.0625 33.6875ZM23.5 45.8333C20.3299 45.8333 17.3507 45.2318 14.5625 44.0286C11.7743 42.8255 9.349 41.1927 7.2865 39.1302C5.224 37.0677 3.59119 34.6424 2.38806 31.8542C1.18494 29.066 0.583374 26.0868 0.583374 22.9167C0.583374 19.7465 1.18494 16.7674 2.38806 13.9792C3.59119 11.191 5.224 8.76562 7.2865 6.70312C9.349 4.64062 11.7743 3.00781 14.5625 1.80469C17.3507 0.601562 20.3299 0 23.5 0C26.6702 0 29.6493 0.601562 32.4375 1.80469C35.2257 3.00781 37.6511 4.64062 39.7136 6.70312C41.7761 8.76562 43.4089 11.191 44.612 13.9792C45.8151 16.7674 46.4167 19.7465 46.4167 22.9167C46.4167 26.0868 45.8151 29.066 44.612 31.8542C43.4089 34.6424 41.7761 37.0677 39.7136 39.1302C37.6511 41.1927 35.2257 42.8255 32.4375 44.0286C29.6493 45.2318 26.6702 45.8333 23.5 45.8333ZM23.5 41.25C28.5799 41.25 32.9054 39.4644 36.4766 35.8932C40.0478 32.322 41.8334 27.9965 41.8334 22.9167C41.8334 17.8368 40.0478 13.5113 36.4766 9.9401C32.9054 6.36892 28.5799 4.58333 23.5 4.58333C18.4202 4.58333 14.0947 6.36892 10.5235 9.9401C6.9523 13.5113 5.16671 17.8368 5.16671 22.9167C5.16671 27.9965 6.9523 32.322 10.5235 35.8932C14.0947 39.4644 18.4202 41.25 23.5 41.25Z" fill="white"/>
</svg>
